# xmcd CD database file
#
# Track frame offsets:
#	150
#	12105
#	27255
#	43942
#	60179
#	74804
#	90479
#	103604
#	118319
#	128981
#	143756
#	154556
#	163631
#	169968
#	185689
#	202963
#	220100
#	231350
#	248825
#	271737
#	284562
#	306475
#	320350
#	334225
#
# Disc length: 4552 seconds
#
# Revision: 0
# Processed by: cddbd v1.5.2PL0 Copyright (c) Steve Scherf et al.
# Submitted via: CDex 1.70beta2
#
DISCID=6511c618
DTITLE=Bridge Pipers Jazz Band - Les Oignons
DYEAR=2017
DGENRE=Jazz
TTITLE0=Les Oignons
TTITLE1=Ain't She Sweet
TTITLE2=Down In Hony Tonk Town
TTITLE3=Go Back Where You Stayed Last Night
TTITLE4=Conti Street Parade
TTITLE5=I Cried For You
TTITLE6=Old Fashioned Love
TTITLE7=Old Stack O'Lee Blues
TTITLE8=Coney Island Washboard
TTITLE9=Dangerous Blues
TTITLE10=Roses Of Picardy
TTITLE11=Sweethearts Of Parade
TTITLE12=Old Time Religion
TTITLE13=Dans Les Rues D'Antibes
TTITLE14=Milenberg Joys
TTITLE15=Milenberg Joys
TTITLE16=Go To The Mardi Gras
TTITLE17=When The Swallows Come Back To Capistrano
TTITLE18=I Wish I Could Shimmy Like My Sister Kate
TTITLE19=Red Sails In The Sunset
TTITLE20=Yellow Dog Blues
TTITLE21=Everybody Loves My Baby
TTITLE22=When The Saints Go Marching In
TTITLE23=Until We Meet Again
EXTD=YEAR: 2017
EXTT0=
EXTT1=
EXTT2=
EXTT3=
EXTT4=
EXTT5=
EXTT6=
EXTT7=
EXTT8=
EXTT9=
EXTT10=
EXTT11=
EXTT12=
EXTT13=
EXTT14=
EXTT15=
EXTT16=
EXTT17=
EXTT18=
EXTT19=
EXTT20=
EXTT21=
EXTT22=
EXTT23=
PLAYORDER=
